<svg width="74" height="74" viewBox="0 0 74 74" fill="none" xmlns="http://www.w3.org/2000/svg">
<circle cx="37" cy="37" r="37" fill="#FFDCDC"/>
<circle cx="37.0001" cy="37" r="26.4286" fill="#E95959"/>
<path d="M42.2175 42.6V45H31.4475V42.6H35.7075V30.9C35.5275 31.14 35.2475 31.4 34.8675 31.68C34.4875 31.94 34.0575 32.19 33.5775 32.43C33.1175 32.65 32.6375 32.84 32.1375 33C31.6375 33.16 31.1975 33.24 30.8175 33.24V30.72C31.2575 30.72 31.7475 30.6 32.2875 30.36C32.8275 30.1 33.3375 29.81 33.8175 29.49C34.3175 29.15 34.7375 28.83 35.0775 28.53C35.4375 28.21 35.6475 27.99 35.7075 27.87H38.4075V42.6H42.2175Z" fill="white"/>
</svg>
