<svg width="74" height="74" viewBox="0 0 74 74" fill="none" xmlns="http://www.w3.org/2000/svg">
<circle cx="37" cy="37" r="37" fill="#FFDCDC"/>
<circle cx="37.0001" cy="37" r="26.4286" fill="#E95959"/>
<path d="M29.9531 45C29.9531 44.2 30.0131 43.45 30.1331 42.75C30.2731 42.05 30.5231 41.38 30.8831 40.74C31.2431 40.1 31.7331 39.49 32.3531 38.91C32.9931 38.33 33.8231 37.75 34.8431 37.17C35.4431 36.85 36.0531 36.54 36.6731 36.24C37.2931 35.92 37.8531 35.59 38.3531 35.25C38.8731 34.89 39.2931 34.51 39.6131 34.11C39.9531 33.71 40.1231 33.24 40.1231 32.7C40.1231 32.36 40.0431 32.02 39.8831 31.68C39.7231 31.34 39.4931 31.04 39.1931 30.78C38.8931 30.52 38.5131 30.31 38.0531 30.15C37.6131 29.99 37.1031 29.91 36.5231 29.91C35.9231 29.91 35.3731 30 34.8731 30.18C34.3931 30.34 33.9631 30.55 33.5831 30.81C33.2031 31.05 32.8731 31.31 32.5931 31.59C32.3131 31.87 32.0831 32.12 31.9031 32.34L30.1931 30.42C30.3531 30.24 30.6231 30 31.0031 29.7C31.3831 29.38 31.8631 29.06 32.4431 28.74C33.0231 28.42 33.6931 28.15 34.4531 27.93C35.2131 27.69 36.0631 27.57 37.0031 27.57C37.9231 27.57 38.7531 27.7 39.4931 27.96C40.2331 28.2 40.8531 28.54 41.3531 28.98C41.8731 29.42 42.2731 29.94 42.5531 30.54C42.8331 31.12 42.9731 31.74 42.9731 32.4C42.9731 33.18 42.8031 33.86 42.4631 34.44C42.1231 35.02 41.7031 35.53 41.2031 35.97C40.7231 36.41 40.2031 36.79 39.6431 37.11C39.0831 37.41 38.5831 37.67 38.1431 37.89C37.7031 38.11 37.2031 38.38 36.6431 38.7C36.1031 39 35.5831 39.35 35.0831 39.75C34.5831 40.13 34.1431 40.56 33.7631 41.04C33.4031 41.52 33.1731 42.04 33.0731 42.6H43.3031V45H29.9531Z" fill="white"/>
</svg>
