<svg width="74" height="74" viewBox="0 0 74 74" fill="none" xmlns="http://www.w3.org/2000/svg">
<circle cx="37" cy="37" r="37" fill="#FFDCDC"/>
<circle cx="36.9999" cy="37" r="26.4286" fill="#E95959"/>
<path d="M39.3298 37.92C40.6098 38.14 41.6198 38.73 42.3598 39.69C43.1198 40.65 43.4998 41.84 43.4998 43.26C43.4998 44.18 43.3298 45.02 42.9898 45.78C42.6498 46.54 42.1598 47.19 41.5198 47.73C40.8998 48.27 40.1498 48.68 39.2698 48.96C38.3898 49.26 37.4098 49.41 36.3298 49.41C34.8098 49.41 33.4698 49.12 32.3098 48.54C31.1698 47.98 30.2798 47.18 29.6398 46.14L31.4098 44.37C31.8698 45.19 32.4898 45.83 33.2698 46.29C34.0498 46.77 35.0698 47.01 36.3298 47.01C37.7098 47.01 38.7898 46.7 39.5698 46.08C40.3698 45.46 40.7698 44.52 40.7698 43.26C40.7698 42 40.3398 41 39.4798 40.26C38.6398 39.5 37.4098 39.12 35.7898 39.12H35.0098V36.9H35.8498C37.2898 36.9 38.3898 36.56 39.1498 35.88C39.9298 35.18 40.3198 34.3 40.3198 33.24C40.3198 32.18 39.9498 31.39 39.2098 30.87C38.4698 30.35 37.5398 30.09 36.4198 30.09C35.3198 30.09 34.3498 30.33 33.5098 30.81C32.6898 31.27 32.0498 31.92 31.5898 32.76L29.9698 31.08C30.2298 30.58 30.5798 30.13 31.0198 29.73C31.4798 29.31 31.9998 28.95 32.5798 28.65C33.1798 28.35 33.8198 28.12 34.4998 27.96C35.1998 27.8 35.9298 27.72 36.6898 27.72C37.6298 27.72 38.4898 27.85 39.2698 28.11C40.0698 28.37 40.7498 28.73 41.3098 29.19C41.8898 29.65 42.3298 30.21 42.6298 30.87C42.9498 31.53 43.1098 32.26 43.1098 33.06C43.1098 33.66 43.0198 34.23 42.8398 34.77C42.6798 35.31 42.4298 35.8 42.0898 36.24C41.7698 36.68 41.3698 37.05 40.8898 37.35C40.4298 37.63 39.9098 37.82 39.3298 37.92Z" fill="white"/>
</svg>
