<svg width="54" height="54" viewBox="0 0 54 54" fill="none" xmlns="http://www.w3.org/2000/svg">
<path d="M50.0359 12.9133L52.6549 10.2947C53.0899 9.85927 53.2333 9.2108 53.0219 8.63278C52.8106 8.05435 52.2828 7.65143 51.669 7.59952L46.8104 7.18959L46.4005 2.33102C46.349 1.71758 45.9456 1.18982 45.3676 0.97847C44.7896 0.766708 44.1411 0.91008 43.7057 1.34555L41.0867 3.96414C36.8514 1.36739 32.0089 0 27 0C19.7882 0 13.0077 2.80852 7.9081 7.9081C2.80852 13.0077 0 19.7882 0 27C0 34.2118 2.80852 40.9923 7.9081 46.0919C13.0077 51.1915 19.7882 54 27 54C34.2118 54 40.9923 51.1915 46.0919 46.0919C51.1915 40.9923 54 34.2118 54 27C54 21.9911 52.6326 17.149 50.0359 12.9133ZM43.7695 8.78687C43.8346 9.55563 44.4444 10.1654 45.2131 10.2305L48.0085 10.4661L44.2248 14.2498L40.0983 13.9017L39.7502 9.77522L43.5339 5.99153L43.7695 8.78687ZM32.3789 27C32.3789 29.9659 29.9659 32.3789 27 32.3789C24.0341 32.3789 21.6211 29.9659 21.6211 27C21.6211 24.0341 24.0341 21.6211 27 21.6211C27.9084 21.6211 28.7641 21.8481 29.5152 22.2473L25.8815 25.8815C25.2635 26.499 25.2635 27.5006 25.8815 28.1185C26.19 28.4275 26.595 28.582 27 28.582C27.405 28.582 27.81 28.4275 28.1185 28.1185L31.7527 24.4848C32.1519 25.2359 32.3789 26.0916 32.3789 27ZM31.8149 19.9476C30.443 19.0083 28.7847 18.457 27 18.457C22.2893 18.457 18.457 22.2893 18.457 27C18.457 31.7107 22.2893 35.543 27 35.543C31.7107 35.543 35.543 31.7107 35.543 27C35.543 25.2153 34.9917 23.557 34.0524 22.1851L38.5694 17.6681C40.6331 20.2216 41.8711 23.4689 41.8711 27C41.8711 35.1998 35.1998 41.8711 27 41.8711C18.8002 41.8711 12.1289 35.1998 12.1289 27C12.1289 18.8002 18.8002 12.1289 27 12.1289C30.5311 12.1289 33.7784 13.3669 36.3319 15.4306L31.8149 19.9476ZM43.8544 43.8544C39.3526 48.3566 33.3669 50.8359 27 50.8359C20.6331 50.8359 14.6474 48.3566 10.1456 43.8544C5.6434 39.3526 3.16406 33.3669 3.16406 27C3.16406 20.6331 5.6434 14.6474 10.1456 10.1456C14.6474 5.6434 20.6331 3.16406 27 3.16406C31.1652 3.16406 35.1998 4.23399 38.7779 6.27292L36.9936 8.05724C36.7052 8.34563 36.5408 8.73207 36.5305 9.13541C36.5293 9.19308 36.5309 9.25076 36.5354 9.30885L36.7484 11.8331C33.9358 10.0187 30.5888 8.96484 27 8.96484C17.0555 8.96484 8.96484 17.0555 8.96484 27C8.96484 36.9445 17.0555 45.0352 27 45.0352C36.9445 45.0352 45.0352 36.9445 45.0352 27C45.0352 23.4112 43.9813 20.0642 42.1669 17.2516L44.6911 17.4646C44.7356 17.4678 44.7801 17.4699 44.8242 17.4699C44.8316 17.4699 44.8395 17.4691 44.8469 17.4687C44.8679 17.4687 44.8885 17.467 44.9095 17.4658C44.9437 17.4637 44.9783 17.4617 45.0121 17.4576C45.0331 17.4547 45.0541 17.4514 45.0751 17.4481C45.1085 17.4427 45.1414 17.4365 45.1744 17.4291C45.1954 17.4242 45.216 17.4188 45.2366 17.4135C45.2688 17.4048 45.3005 17.3949 45.3322 17.3842C45.3528 17.3772 45.373 17.3702 45.3932 17.3624C45.4241 17.3504 45.4546 17.3372 45.485 17.3228C45.5044 17.3142 45.5238 17.3055 45.5431 17.2956C45.5736 17.28 45.6033 17.2627 45.6325 17.2454C45.6503 17.2347 45.668 17.2248 45.6853 17.2141C45.7166 17.1935 45.7467 17.1712 45.7767 17.1486C45.7907 17.1378 45.8052 17.1284 45.8188 17.1172C45.8616 17.0826 45.9032 17.046 45.9428 17.0064L47.7271 15.2221C49.766 18.8002 50.8359 22.8348 50.8359 27C50.8359 33.3669 48.3566 39.3526 43.8544 43.8544Z" fill="#E95959"/>
</svg>
