<svg width="54" height="54" viewBox="0 0 54 54" fill="none" xmlns="http://www.w3.org/2000/svg">
<g clip-path="url(#clip0)">
<path d="M53.3736 31.0584L51.9597 30.3505C48.0515 28.3937 43.3024 29.9771 41.3479 33.8915L38.9445 38.6933C37.5398 36.4851 35.0725 35.0157 32.267 35.0157H24.9876C22.6396 32.8979 19.632 31.7392 16.4467 31.7392C13.2613 31.7392 10.2543 32.898 7.90632 35.0157H0.626343V54H10.1185V51.1993H43.303L53.3736 31.0584ZM6.95447 50.836H3.79041V38.1797H6.95447V50.836ZM10.1185 48.0353V37.2854C11.8705 35.746 14.0932 34.9032 16.4467 34.9032C21.0509 34.9032 23.4666 38.0156 23.7015 38.1797H32.267C34.3294 38.1797 36.0879 39.5024 36.741 41.3438H19.6107V44.5079H39.5725L44.1781 35.3062C45.1128 33.4341 47.0952 32.4726 49.009 32.7124L41.3475 48.0353H10.1185Z" fill="#E95959"/>
<path d="M22.7748 23.7305V26.8945C22.7748 29.5115 24.9039 31.6406 27.5209 31.6406C30.1379 31.6406 32.267 29.5115 32.267 26.8945V23.7305C32.267 22.9901 33.2806 21.7664 34.261 20.5831C36.0901 18.3752 38.5951 15.3513 38.5951 11.0742C38.5951 4.96789 33.6272 0 27.5209 0C21.4145 0 16.4467 4.96789 16.4467 11.0742C16.4467 15.3513 18.9516 18.3752 20.7808 20.5831C21.7611 21.7664 22.7748 22.9901 22.7748 23.7305ZM27.5209 28.4766C26.6485 28.4766 25.9388 27.7669 25.9388 26.8945V25.3125H29.1029V26.8945C29.1029 27.7669 28.3933 28.4766 27.5209 28.4766ZM27.5209 3.16406C31.8825 3.16406 35.431 6.71256 35.431 11.0742C35.431 14.211 33.515 16.5239 31.8244 18.5646C30.833 19.7614 29.8812 20.9112 29.41 22.1484H25.6318C25.1606 20.9111 24.2087 19.7613 23.2174 18.5646C21.5269 16.5239 19.6108 14.2111 19.6108 11.0742C19.6107 6.71256 23.1592 3.16406 27.5209 3.16406Z" fill="#E95959"/>
<path d="M25.9389 18.9844H29.1029V14.8936L31.8036 12.193L29.5663 9.95557L27.5209 12.001L25.4755 9.95557L23.2382 12.193L25.9389 14.8936V18.9844Z" fill="#E95959"/>
<path d="M6.95447 10.125H13.2826V13.2891H6.95447V10.125Z" fill="#E95959"/>
<path d="M41.7592 10.125H48.0873V13.2891H41.7592V10.125Z" fill="#E95959"/>
<path d="M8.91858 20.6198L14.3987 17.4557L15.9808 20.1958L10.5006 23.3598L8.91858 20.6198Z" fill="#E95959"/>
<path d="M39.0483 3.21741L44.5283 -0.00576323L46.1325 2.72166L40.6525 5.94483L39.0483 3.21741Z" fill="#E95959"/>
<path d="M8.90997 2.73016L10.5142 0.00274115L15.9942 3.22591L14.39 5.95334L8.90997 2.73016Z" fill="#E95959"/>
<path d="M39.0602 20.1975L40.6422 17.4574L46.1224 20.6215L44.5403 23.3616L39.0602 20.1975Z" fill="#E95959"/>
</g>
<defs>
<clipPath id="clip0">
<rect width="54" height="54" fill="white"/>
</clipPath>
</defs>
</svg>
