<svg width="54" height="54" viewBox="0 0 54 54" fill="none" xmlns="http://www.w3.org/2000/svg">
<path d="M14.9891 39.5744C17.5953 42.0579 19.0899 45.5845 19.0899 49.2539C19.0899 51.8709 21.2189 54 23.8359 54H30.1641C32.7811 54 34.9102 51.8709 34.9102 49.2499C34.9102 45.5842 36.4046 42.0579 39.0101 39.5753C42.4874 36.2619 44.4024 31.796 44.4024 27C44.4024 16.0324 34.3625 7.67025 23.2657 9.98772C16.4363 11.4139 11.0498 17.0166 9.86186 23.9293C8.82468 29.9662 10.9112 35.6882 14.9891 39.5744ZM12.9802 24.4651C13.9499 18.8213 18.3433 14.2479 23.9124 13.0849C33.0027 11.1868 41.2383 17.9993 41.2383 27C41.2383 30.9218 39.6718 34.5743 36.8274 37.2845C33.5982 40.3615 31.7461 44.7226 31.7461 49.2539C31.7461 50.1263 31.0364 50.836 30.1641 50.836H23.8359C22.9636 50.836 22.2539 50.1263 22.2539 49.2501C22.2539 44.7232 20.4017 40.3617 17.1719 37.2839C13.6801 33.9562 12.1523 29.284 12.9802 24.4651Z" fill="#E95959"/>
<path d="M23.8359 41.2383H30.1641C31.0378 41.2383 31.7461 40.53 31.7461 39.6562V27C31.7461 26.7544 31.6889 26.5122 31.579 26.2925L28.415 19.9644C28.1471 19.4284 27.5993 19.0898 27 19.0898C26.4007 19.0898 25.8529 19.4284 25.585 19.9644L22.421 26.2925C22.3111 26.5122 22.2539 26.7544 22.2539 27V39.6562C22.2539 40.53 22.9622 41.2383 23.8359 41.2383ZM25.418 38.0742V31.7461H28.582V38.0742H25.418ZM27 24.2094L28.582 27.3735V28.582H25.418V27.3735L27 24.2094Z" fill="#E95959"/>
<path d="M16.7168 9.18896C17.4735 8.7521 17.7328 7.78453 17.2958 7.0279L15.7138 4.28772C15.2769 3.53098 14.3094 3.27184 13.5527 3.70869C12.796 4.14555 12.5367 5.11312 12.9737 5.86975L14.5557 8.60993C14.9939 9.36899 15.9623 9.62454 16.7168 9.18896Z" fill="#E95959"/>
<path d="M7.0279 36.7042L4.28783 38.2862C3.53109 38.7231 3.27184 39.6906 3.7088 40.4473C4.14702 41.2063 5.11533 41.4619 5.86986 41.0263L8.60994 39.4443C9.36667 39.0074 9.62592 38.0398 9.18896 37.2832C8.752 36.5265 7.78454 36.2674 7.0279 36.7042Z" fill="#E95959"/>
<path d="M46.9721 17.2958L49.7122 15.7138C50.4689 15.2769 50.7282 14.3094 50.2912 13.5527C49.8542 12.796 48.8867 12.5369 48.1301 12.9737L45.3901 14.5557C44.6333 14.9926 44.3741 15.9602 44.811 16.7168C45.2493 17.4759 46.2176 17.7314 46.9721 17.2958Z" fill="#E95959"/>
<path d="M45.3901 39.4443L48.1301 41.0263C48.8835 41.4614 49.8524 41.2072 50.2912 40.4473C50.7282 39.6907 50.4689 38.7231 49.7122 38.2862L46.9721 36.7042C46.2152 36.2671 45.2478 36.5265 44.811 37.2832C44.3741 38.0399 44.6333 39.0074 45.3901 39.4443Z" fill="#E95959"/>
<path d="M8.60994 14.5557L5.86986 12.9737C5.11312 12.5366 4.14565 12.796 3.7088 13.5527C3.27184 14.3093 3.53109 15.2769 4.28783 15.7138L7.0279 17.2958C7.78127 17.7308 8.75021 17.4767 9.18896 16.7168C9.62592 15.9601 9.36667 14.9926 8.60994 14.5557Z" fill="#E95959"/>
<path d="M39.4442 8.60994L41.0263 5.86976C41.4632 5.11313 41.204 4.14556 40.4472 3.7087C39.6904 3.27164 38.723 3.53109 38.2862 4.28773L36.7042 7.02791C36.2672 7.78454 36.5264 8.75211 37.2832 9.18896C38.0365 9.62402 39.0055 9.36984 39.4442 8.60994Z" fill="#E95959"/>
<path d="M28.582 4.85156V1.58203C28.582 0.708328 27.8737 0 27 0C26.1263 0 25.418 0.708328 25.418 1.58203V4.85156C25.418 5.72527 26.1263 6.43359 27 6.43359C27.8737 6.43359 28.582 5.72527 28.582 4.85156Z" fill="#E95959"/>
<path d="M1.58203 28.582H4.85156C5.72527 28.582 6.43359 27.8737 6.43359 27C6.43359 26.1263 5.72527 25.418 4.85156 25.418H1.58203C0.708328 25.418 0 26.1263 0 27C0 27.8737 0.708328 28.582 1.58203 28.582Z" fill="#E95959"/>
<path d="M54 27C54 26.1263 53.2917 25.418 52.418 25.418H49.1484C48.2747 25.418 47.5664 26.1263 47.5664 27C47.5664 27.8737 48.2747 28.582 49.1484 28.582H52.418C53.2917 28.582 54 27.8737 54 27Z" fill="#E95959"/>
</svg>
