<svg width="72" height="68" viewBox="0 0 72 68" fill="none" xmlns="http://www.w3.org/2000/svg">
<g clip-path="url(#clip0)">
<path d="M19.2309 56.8763C18.679 57.7719 18.1637 58.5872 17.6977 59.2762C16.7984 60.5993 15.2392 61.4004 13.564 61.4004C11.8888 61.4004 10.3297 60.5992 9.43036 59.2762C8.96432 58.5872 8.44909 57.772 7.89717 56.8763C2.76986 57.7835 0.0712891 59.701 0.0712891 61.1936C0.0712891 63.4556 5.83638 65.9932 13.5639 65.9932C21.2915 65.9932 27.0565 63.4556 27.0565 61.1936C27.0566 59.701 24.358 57.7835 19.2309 56.8763Z" fill="#E95959"/>
<path d="M13.564 20.0637C6.10082 20.0815 0.0630993 25.754 0.0712974 32.7402C0.0712974 37.5973 7.00164 51.4334 11.5032 58.0358C11.9479 58.7002 12.7264 59.1037 13.5639 59.1037C14.4014 59.1037 15.18 58.7002 15.6245 58.0358C20.1262 51.4334 27.0565 37.5973 27.0565 32.7402C27.0648 25.754 21.0271 20.0815 13.564 20.0637ZM13.564 41.8801C8.14451 41.8801 3.75115 37.7674 3.75115 32.6942C3.75115 27.621 8.14451 23.5083 13.564 23.5083C18.9836 23.5083 23.3769 27.621 23.3769 32.6942C23.3696 37.7647 18.9805 41.8734 13.564 41.8801Z" fill="#E95959"/>
<path d="M13.5638 25.8048C9.49919 25.8048 6.2041 28.8892 6.2041 32.6943C6.2041 36.4993 9.49906 39.5837 13.5638 39.5837C17.6284 39.5837 20.9235 36.4993 20.9235 32.6943C20.9202 28.8905 17.627 25.8078 13.5638 25.8048Z" fill="#E95959"/>
<path d="M60.1757 32.6945C64.8246 32.6945 68.762 30.5933 68.762 28.1017C68.762 26.6893 67.4127 25.3115 65.2661 24.4274C64.5424 25.6904 63.8432 26.8156 63.2789 27.654C62.6043 28.648 61.4337 29.25 60.1756 29.25C58.9175 29.25 57.7469 28.6478 57.0722 27.654C56.508 26.8158 55.8089 25.6905 55.0851 24.4274C52.9386 25.3115 51.5894 26.6893 51.5894 28.1017C51.5895 30.5932 55.5268 32.6945 60.1757 32.6945Z" fill="#E95959"/>
<path d="M60.1757 26.9331C60.5877 26.9331 60.9732 26.743 61.206 26.425C64.1743 22.0503 68.7618 12.9333 68.7618 9.76421C68.7682 5.31714 64.9262 1.70515 60.1756 1.69214C55.425 1.70515 51.583 5.31701 51.5894 9.76421C51.5894 12.9333 56.1768 22.0503 59.1453 26.425C59.3783 26.743 59.7637 26.9331 60.1757 26.9331ZM54.0427 9.72974C54.0427 6.55895 56.7885 3.98858 60.1757 3.98858C63.5629 3.98858 66.3088 6.55895 66.3088 9.72974C66.3075 12.9 63.5624 15.4697 60.1757 15.4709C56.7885 15.4709 54.0427 12.9005 54.0427 9.72974Z" fill="#E95959"/>
<path d="M63.8553 9.72964C63.8493 7.82953 62.2054 6.29051 60.1755 6.28491C58.1432 6.28491 56.4956 7.82719 56.4956 9.72964C56.4956 11.6321 58.1432 13.1744 60.1755 13.1744C62.2078 13.1744 63.8553 11.6321 63.8553 9.72964Z" fill="#E95959"/>
<path d="M31.9636 60.2518H30.7369C30.0595 60.2518 29.5103 60.7659 29.5103 61.4001C29.5103 62.0342 30.0594 62.5484 30.7369 62.5484H31.9636C32.641 62.5484 33.1902 62.0344 33.1902 61.4001C33.1902 60.7659 32.6411 60.2518 31.9636 60.2518Z" fill="#E95959"/>
<path d="M46.7671 60.2518H44.2994C43.622 60.2518 43.0728 60.7659 43.0728 61.4001C43.0728 62.0342 43.6219 62.5484 44.2994 62.5484H46.7671C47.4444 62.5484 47.9937 62.0344 47.9937 61.4001C47.9937 60.7659 47.4446 60.2518 46.7671 60.2518Z" fill="#E95959"/>
<path d="M44.2787 38.4354C44.2787 37.8013 43.7296 37.2871 43.0521 37.2871H40.5846C39.9072 37.2871 39.3579 37.8012 39.3579 38.4354C39.3579 39.0695 39.907 39.5837 40.5846 39.5837H43.0521C43.7296 39.5835 44.2787 39.0695 44.2787 38.4354Z" fill="#E95959"/>
<path d="M39.2257 29.2496H41.6933C42.3707 29.2496 42.92 28.7355 42.92 28.1013C42.92 27.4672 42.3709 26.953 41.6933 26.953H39.2257C38.5483 26.953 37.999 27.467 37.999 28.1013C37.999 28.7355 38.5482 29.2496 39.2257 29.2496Z" fill="#E95959"/>
<path d="M33.4747 32.7728C34.0019 32.7724 34.4699 32.4572 34.6379 31.9895C34.8431 31.4198 35.182 30.9001 35.6297 30.4689C36.1017 30.0137 36.0902 29.2866 35.6039 28.8447C35.1175 28.4029 34.3408 28.4137 33.8688 28.8689C33.1668 29.5474 32.6349 30.3637 32.3116 31.2585C32.1868 31.6089 32.2495 31.994 32.4797 32.2938C32.7101 32.5938 33.0803 32.7719 33.4747 32.7728Z" fill="#E95959"/>
<path d="M67.4969 42.9093C66.9221 43.2447 66.7464 43.9528 67.1047 44.4909C67.4958 45.0791 67.8225 45.7026 68.0797 46.3522C68.2577 46.8028 68.7165 47.1019 69.2297 47.1023C69.6309 47.1018 70.0065 46.9178 70.2357 46.6094C70.4648 46.301 70.5186 45.9074 70.3795 45.5549C70.0648 44.7597 69.665 43.9963 69.1864 43.2764C68.8282 42.7384 68.0718 42.574 67.4969 42.9093Z" fill="#E95959"/>
<path d="M39.3657 60.2518H36.8981C36.2207 60.2518 35.6714 60.7659 35.6714 61.4001C35.6714 62.0342 36.2205 62.5484 36.8981 62.5484H39.3657C40.0431 62.5484 40.5924 62.0344 40.5924 61.4001C40.5924 60.7659 40.0432 60.2518 39.3657 60.2518Z" fill="#E95959"/>
<path d="M70.0315 49.3498C69.3583 49.319 68.7846 49.8023 68.7466 50.4324C68.7108 51.1237 68.5996 51.8097 68.4148 52.4799C68.32 52.824 68.4009 53.1898 68.6335 53.4705C68.8663 53.7513 69.2246 53.9155 69.6042 53.9151C70.1631 53.914 70.6507 53.5602 70.7913 53.0539C71.0169 52.2323 71.153 51.3915 71.1973 50.5444C71.2254 49.914 70.7047 49.3805 70.0315 49.3498Z" fill="#E95959"/>
<path d="M51.6346 38.4354C51.6133 37.7931 51.0489 37.2837 50.3625 37.2871H47.9859C47.3085 37.2871 46.7593 37.8012 46.7593 38.4354C46.7593 39.0695 47.3084 39.5837 47.9859 39.5837H50.4535C50.7742 39.582 51.0805 39.4591 51.3029 39.2429C51.5254 39.0266 51.645 38.7354 51.6346 38.4354Z" fill="#E95959"/>
<path d="M68.1988 55.9794C67.6619 55.5932 66.8923 55.6873 66.4793 56.1895C66.0271 56.74 65.5179 57.2471 64.9592 57.7038C64.5737 58.0183 64.4371 58.5238 64.6167 58.9722C64.7962 59.4205 65.2539 59.7174 65.7654 59.7172C66.0619 59.7176 66.3484 59.6169 66.5716 59.4341C67.2527 58.8777 67.8734 58.2596 68.4246 57.589C68.8367 57.086 68.7357 56.3656 68.1988 55.9794Z" fill="#E95959"/>
<path d="M59.0902 38.4437C59.0948 37.8096 58.5494 37.2919 57.872 37.2876L55.3888 37.2871C54.7114 37.2871 54.1621 37.8012 54.1621 38.4354C54.1621 39.0695 54.7113 39.5837 55.3888 39.5837L57.8384 39.5842H57.8552C58.5327 39.5885 59.0856 39.0779 59.0902 38.4437Z" fill="#E95959"/>
<path d="M35.8053 38.8112C36.3535 38.8117 36.8354 38.4717 36.9859 37.9783C37.1364 37.4849 36.919 36.958 36.4534 36.6873C35.9076 36.3694 35.4441 35.942 35.0963 35.4359C34.7301 34.9021 33.9709 34.7471 33.4006 35.09C32.8304 35.4328 32.6649 36.1435 33.0312 36.6773C33.5775 37.47 34.3044 38.1397 35.1598 38.6386C35.3533 38.7515 35.577 38.8113 35.8053 38.8112Z" fill="#E95959"/>
<path d="M54.1684 60.2518H51.7008C51.0234 60.2518 50.4741 60.7659 50.4741 61.4001C50.4741 62.0342 51.0233 62.5484 51.7008 62.5484H54.1684C54.8458 62.5484 55.3951 62.0344 55.3951 61.4001C55.3949 60.7659 54.8458 60.2518 54.1684 60.2518Z" fill="#E95959"/>
<path d="M64.7852 41.6924C65.3197 41.6929 65.7931 41.3694 65.9554 40.8929C66.1177 40.4161 65.9317 39.896 65.4956 39.6068C64.7573 39.1176 63.9689 38.6987 63.1419 38.3561C62.7411 38.1902 62.2762 38.2372 61.9224 38.4791C61.5687 38.7211 61.3795 39.1214 61.4265 39.5292C61.4735 39.937 61.7493 40.2904 62.15 40.4562C62.8274 40.737 63.473 41.0806 64.0774 41.4817C64.2843 41.6188 64.5317 41.6924 64.7852 41.6924Z" fill="#E95959"/>
<path d="M61.126 59.7455C60.4226 59.9604 59.6979 60.1081 58.9627 60.1862C58.3166 60.2548 57.8397 60.7834 57.876 61.3912C57.9122 61.9991 58.4489 62.4747 59.0991 62.4754C59.1456 62.4754 59.192 62.473 59.2381 62.4681C60.1385 62.3722 61.0261 62.1916 61.8877 61.9287C62.5318 61.7318 62.8833 61.0833 62.6729 60.4805C62.4626 59.8777 61.7699 59.5486 61.126 59.7455Z" fill="#E95959"/>
<path d="M46.6822 29.2496H47.9089C48.5863 29.2496 49.1356 28.7355 49.1356 28.1013C49.1356 27.4672 48.5864 26.953 47.9089 26.953H46.6822C46.0048 26.953 45.4556 27.467 45.4556 28.1013C45.4557 28.7355 46.0048 29.2496 46.6822 29.2496Z" fill="#E95959"/>
</g>
<defs>
<clipPath id="clip0">
<rect width="71.1274" height="66.5827" fill="white" transform="translate(0.0712891 0.551147)"/>
</clipPath>
</defs>
</svg>
