<svg width="71" height="67" viewBox="0 0 71 67" fill="none" xmlns="http://www.w3.org/2000/svg">
<path d="M35.7758 0.929077C16.5161 0.929077 0.847168 15.5968 0.847168 33.6259C0.847168 51.655 16.5161 66.3228 35.7758 66.3228C55.0356 66.3228 70.7045 51.655 70.7045 33.6259C70.7045 15.5968 55.0356 0.929077 35.7758 0.929077ZM66.2913 33.6259C66.2913 35.0732 66.1746 36.4955 65.9517 37.8856C63.1641 33.4207 57.9919 30.4128 52.08 30.4128C45.6586 30.4128 40.4341 25.5222 40.4341 19.5111C40.4341 14.1199 44.7252 9.48037 50.4157 8.71955C50.4883 8.70991 50.5594 8.6966 50.6293 8.68053C59.965 13.5714 66.2913 22.9193 66.2913 33.6259ZM9.5428 19.0486H15.2659C17.2769 19.0486 19.2162 19.8386 20.5867 21.2163C21.918 22.5548 22.5761 24.278 22.4395 26.0696C22.4324 26.1646 22.4228 26.26 22.4116 26.3544C21.9604 30.0958 18.3404 32.7958 14.346 32.374C10.957 32.0157 7.70742 33.034 5.2971 35.0202C5.27332 34.5582 5.26032 34.0934 5.26032 33.6262C5.26032 28.3043 6.82454 23.3189 9.5428 19.0486ZM23.4879 59.7703L33.251 45.1707C34.3379 43.5453 35.9058 42.2828 37.7853 41.5192C40.4763 40.4256 43.5361 40.4825 46.1796 41.6751C50.5263 43.636 53.1301 47.8154 52.8125 52.3227L52.4524 57.4355C52.4499 57.4697 52.4514 57.5034 52.4507 57.5374C47.6543 60.4783 41.9251 62.1916 35.7756 62.1916C31.4063 62.1916 27.2494 61.3257 23.4879 59.7703ZM57.1154 54.0236L57.2161 52.5942C57.6526 46.3968 54.0728 40.6498 48.0956 37.9533C44.2959 36.2389 39.8975 36.1576 36.0283 37.7293C33.3268 38.8268 31.0729 40.642 29.5101 42.9787L19.5813 57.8259C13.0755 53.9972 8.21395 47.9363 6.23489 40.7986C7.42865 37.8996 10.5277 36.1283 13.8513 36.479C14.2953 36.5258 14.7354 36.5487 15.1723 36.5487C21.0447 36.5485 26.1233 32.4065 26.797 26.8166C26.8154 26.6647 26.8304 26.5134 26.8419 26.3629C27.0665 23.4155 25.9921 20.5879 23.8167 18.4012C21.6145 16.1873 18.4981 14.9175 15.2662 14.9175H12.734C18.3333 8.8825 26.5864 5.06025 35.7758 5.06025C38.814 5.06025 41.749 5.48002 44.5207 6.2576C39.4382 8.81893 36.021 13.8647 36.021 19.5111C36.021 27.8003 43.225 34.544 52.08 34.544C58.379 34.544 63.5223 39.2505 63.7165 45.1037C62.1348 48.4644 59.8814 51.4875 57.1154 54.0236Z" fill="#E95959"/>
</svg>
