<svg width="77" height="49" viewBox="0 0 77 49" fill="none" xmlns="http://www.w3.org/2000/svg">
<path d="M75.4688 2.33898H54.6787C53.8534 2.33898 53.1842 2.96543 53.1842 3.73793V8.90549H49.2194V3.73793C49.2194 2.96543 48.5501 2.33898 47.7249 2.33898H41.3226C40.4974 2.33898 39.8282 2.96543 39.8282 3.73793C39.8282 4.51042 40.4974 5.13687 41.3226 5.13687H46.2305V10.3044C46.2305 11.0769 46.8997 11.7034 47.7249 11.7034H54.6787C55.5039 11.7034 56.1731 11.0769 56.1731 10.3044V5.13687H67.0206V16.3996L47.2844 22.0989C46.615 22.2923 46.1788 22.8948 46.2351 23.5485C46.2838 24.1116 46.3085 24.6684 46.3085 25.2029C46.3085 36.2675 36.6924 45.2691 24.8727 45.2691C13.0529 45.2691 3.43711 36.2676 3.43711 25.2031C3.43711 19.8427 5.66665 14.8034 9.71507 11.0137C13.7635 7.22396 19.1466 5.13687 24.873 5.13687H28.7694C29.5948 5.13687 30.2638 4.51042 30.2638 3.73793C30.2638 2.96543 29.5948 2.33898 28.7694 2.33898H24.873C20.3248 2.33898 15.9675 3.49577 12.1819 5.6584C11.7859 3.00166 9.34415 0.949829 6.39892 0.949829C3.17842 0.949829 0.558382 3.40246 0.558382 6.41719C0.558382 9.01978 2.51176 11.2021 5.1179 11.7504C2.08629 15.6346 0.448242 20.3005 0.448242 25.2031C0.448242 37.8104 11.405 48.0671 24.873 48.0671C38.3409 48.0671 49.2977 37.8105 49.2977 25.2031C49.2977 24.9553 49.293 24.7038 49.2838 24.4496L75.9093 16.7608C76.5359 16.58 76.9633 16.0379 76.9633 15.424V3.73793C76.9632 2.96543 76.294 2.33898 75.4688 2.33898ZM3.5471 6.41733C3.5471 4.9455 4.82648 3.74786 6.39878 3.74786C7.97107 3.74786 9.25045 4.9455 9.25045 6.41733C9.25045 7.88916 7.97107 9.08679 6.39878 9.08679C4.82648 9.08679 3.5471 7.88916 3.5471 6.41733ZM73.9743 14.3917L70.0095 15.5368V5.13701H73.9743V14.3917Z" fill="#E95959"/>
<path d="M35.0462 5.137C35.8715 5.137 36.5406 4.51067 36.5406 3.73806C36.5406 2.96544 35.8715 2.33911 35.0462 2.33911C34.2208 2.33911 33.5518 2.96544 33.5518 3.73806C33.5518 4.51067 34.2208 5.137 35.0462 5.137Z" fill="#E95959"/>
<path d="M24.8726 10.4758C22.023 10.4758 19.2311 11.1974 16.8003 12.5621C14.577 13.8071 12.6988 15.5655 11.3698 17.645C9.91111 19.9202 9.14014 22.5336 9.14014 25.2029C9.14014 33.3235 16.1977 39.93 24.8725 39.93C27.7219 39.93 30.5138 39.2085 32.9448 37.8438C35.1682 36.5985 37.0464 34.8401 38.3751 32.761C39.834 30.4858 40.605 27.8724 40.605 25.2029C40.605 17.0825 33.5474 10.4758 24.8726 10.4758ZM12.129 25.2031C12.129 23.6593 12.4485 22.1399 13.0602 20.7263L29.6547 36.2605C28.1442 36.8331 26.521 37.1324 24.8725 37.1324C17.8458 37.1323 12.129 31.7808 12.129 25.2031ZM32.3715 34.8467L14.5706 18.1832C15.3526 17.1793 16.3007 16.2918 17.3734 15.5593L35.1745 32.223C34.3925 33.2267 33.4444 34.1142 32.3715 34.8467ZM36.6848 29.6798L20.0903 14.1457C21.6009 13.5731 23.2241 13.2737 24.8726 13.2737C31.8995 13.2737 37.6161 18.6252 37.6161 25.2029C37.6161 26.7468 37.2964 28.2663 36.6848 29.6798Z" fill="#E95959"/>
</svg>
