<svg width="60" height="66" viewBox="0 0 60 66" fill="none" xmlns="http://www.w3.org/2000/svg">
<path d="M49.2167 15.877C48.1488 15.877 47.2831 16.7427 47.2831 17.8105V21.7542H30.4057V17.8105C30.4057 16.7427 29.5399 15.877 28.4721 15.877C27.4042 15.877 26.5385 16.7427 26.5385 17.8105V21.7542H9.66104V17.8105C9.66104 16.7427 8.79531 15.877 7.72745 15.877C6.65959 15.877 5.79385 16.7427 5.79385 17.8105V23.6878C5.79385 24.7556 6.65959 25.6214 7.72745 25.6214H26.5385V30.1774C27.1672 30.0688 27.813 30.0114 28.4721 30.0114C29.1312 30.0114 29.777 30.0688 30.4057 30.1774V25.6214H49.2167C50.2846 25.6214 51.1503 24.7556 51.1503 23.6878V17.8105C51.1503 16.7427 50.2846 15.877 49.2167 15.877Z" fill="#E95959"/>
<path d="M58.4535 0.566497C57.6985 -0.188507 56.4741 -0.188507 55.719 0.566497L49.2167 7.06879L46.7109 4.56298C45.9557 3.80784 44.7315 3.80784 43.9764 4.56298C43.2213 5.31798 43.2213 6.54233 43.9764 7.29747L47.8494 11.1706C48.212 11.5332 48.7038 11.737 49.2167 11.737C49.7295 11.737 50.2214 11.5333 50.5839 11.1706L58.4535 3.30099C59.2086 2.54585 59.2086 1.3215 58.4535 0.566497Z" fill="#E95959"/>
<path d="M8.15396 11.1712L16.0236 3.3016C16.7787 2.54659 16.7787 1.32224 16.0236 0.567107C15.2686 -0.187896 14.0442 -0.187896 13.2891 0.567107L6.78678 7.0694L4.28097 4.56359C3.52597 3.80845 2.30174 3.80845 1.54648 4.56359C0.79135 5.31859 0.79135 6.54294 1.54648 7.29808L5.41947 11.1712C5.78208 11.5338 6.27386 11.7376 6.78665 11.7376C7.29957 11.7375 7.79147 11.5338 8.15396 11.1712Z" fill="#E95959"/>
<path d="M23.1026 11.3053C23.4802 11.683 23.9749 11.8717 24.4698 11.8717C24.9645 11.8717 25.4595 11.6828 25.837 11.3053L28.4719 8.67029L31.1069 11.3053C31.4845 11.6828 31.9793 11.8717 32.4741 11.8717C32.9688 11.8717 33.4638 11.6828 33.8413 11.3053C34.5964 10.5503 34.5964 9.32591 33.8413 8.57078L31.2066 5.93593L33.8415 3.30096C34.5967 2.54596 34.5967 1.3216 33.8415 0.566472C33.0864 -0.188661 31.8622 -0.188661 31.107 0.566472L28.4721 3.20144L25.8371 0.566472C25.0821 -0.188532 23.8577 -0.188532 23.1026 0.566472C22.3475 1.32148 22.3475 2.54583 23.1026 3.30096L25.7376 5.93593L23.1026 8.5709C22.3475 9.32591 22.3475 10.5503 23.1026 11.3053Z" fill="#E95959"/>
<path d="M34.3693 51.1315C32.6495 52.1849 30.6302 52.7926 28.4719 52.7926C26.3136 52.7926 24.2943 52.1849 22.5744 51.1315C20.9307 52.6923 19.9026 54.8955 19.9026 57.3357V64.2793C19.9026 65.2281 20.6746 66.0002 21.6235 66.0002H35.3203C36.2692 66.0002 37.0412 65.2283 37.0412 64.2793V57.3357C37.0412 54.8954 36.0132 52.6921 34.3693 51.1315Z" fill="#E95959"/>
<path d="M28.4721 33.8787C24.3449 33.8787 20.9872 37.2537 20.9872 41.4019C20.9872 45.5503 24.345 48.9252 28.4721 48.9252C32.5991 48.9252 35.9569 45.5502 35.9569 41.4019C35.9569 37.2536 32.5991 33.8787 28.4721 33.8787Z" fill="#E95959"/>
</svg>
