<svg width="54" height="54" viewBox="0 0 54 54" fill="none" xmlns="http://www.w3.org/2000/svg">
<g clip-path="url(#clip0)">
<path d="M18.6647 23.4141H35.3353C36.2411 23.4141 37.0803 23.0047 37.638 22.291C38.1957 21.5773 38.3898 20.6639 38.1706 19.785L36.9256 14.7922C36.329 12.3993 34.5409 10.5649 32.2869 9.85279C32.9558 8.84756 33.3467 7.64205 33.3467 6.34669C33.3467 2.84713 30.4995 0 27 0C23.5004 0 20.6533 2.84713 20.6533 6.34679C20.6533 7.64216 21.0442 8.84756 21.713 9.85289C19.4591 10.565 17.671 12.3994 17.0743 14.7923L15.8294 19.7851C15.6102 20.664 15.8044 21.5773 16.362 22.2911C16.9196 23.0049 17.7589 23.4141 18.6647 23.4141ZM27 3.16406C28.7549 3.16406 30.1826 4.59179 30.1826 6.34679C30.1826 8.10169 28.7549 9.52942 27 9.52942C25.2451 9.52942 23.8174 8.10169 23.8174 6.34679C23.8174 4.59179 25.2451 3.16406 27 3.16406ZM20.1443 15.5577C20.5648 13.8712 22.0724 12.6935 23.8103 12.6935H30.1896C31.9276 12.6935 33.4351 13.8712 33.8556 15.5577L35.0256 20.25H18.9743L20.1443 15.5577Z" fill="#E95959"/>
<path d="M53.9602 16.0494C53.9546 13.6399 52.1487 11.588 49.7596 11.2764C48.3833 11.0965 46.9955 11.5192 45.9524 12.435C44.9093 13.351 44.3111 14.6723 44.3111 16.0604L44.3112 23.7481C44.2118 23.7418 44.1116 23.7386 44.0111 23.7386C42.7619 23.7386 41.5875 24.225 40.7043 25.1083L36.557 29.2556C36.5165 29.296 36.4602 29.3152 36.4037 29.3089C36.375 29.3057 36.3463 29.3031 36.3174 29.3015L34.4574 29.1903C32.9133 29.0269 31.4001 29.5612 30.3 30.6611L27.7349 33.2263C27.4679 33.4932 27.2234 33.7766 27.0001 34.0729C26.7768 33.7765 26.5323 33.4932 26.2653 33.2263L23.7001 30.661C22.6002 29.5612 21.0875 29.027 19.5428 29.1903L17.6828 29.3015C17.654 29.3033 17.6252 29.3057 17.5965 29.3089C17.539 29.3154 17.4838 29.296 17.4433 29.2557L13.2959 25.1083C12.4126 24.225 11.2383 23.7386 9.98916 23.7386C9.88865 23.7386 9.78845 23.7418 9.689 23.7481L9.6891 16.0604C9.6891 14.6723 9.09099 13.351 8.0478 12.435C7.00471 11.519 5.61706 11.0964 4.24059 11.2764C1.8514 11.588 0.0455644 13.6399 0.0399746 16.0494L1.9084e-06 33.487C-0.00411137 35.3057 0.731111 37.0864 2.01709 38.3724L12.1289 48.4841V51.3633C12.1289 52.8172 13.3117 54 14.7656 54H25.9453C26.3203 54 26.6767 53.9208 27 53.7792C27.3233 53.9208 27.6798 54 28.0547 54H39.2344C40.6883 54 41.8711 52.8172 41.8711 51.3633V48.4841L51.9829 38.3724C53.2689 37.0864 54.0041 35.3057 54 33.487L53.9602 16.0494ZM49.7456 36.1351L39.1705 46.7102C38.8738 47.0069 38.707 47.4093 38.707 47.8288V50.836H28.582V38.8198C28.582 37.552 29.0757 36.3602 29.9722 35.4638L32.5373 32.8987C32.9616 32.4744 33.5468 32.2701 34.1427 32.339C34.1715 32.3422 34.2003 32.3449 34.2293 32.3466L36.0923 32.4578C37.0966 32.5593 38.0789 32.2085 38.7944 31.4932L42.9417 27.3459C43.5315 26.7564 44.4908 26.7562 45.0806 27.3459C45.6703 27.9356 45.6703 28.895 45.0806 29.4848L39.1706 35.3948C38.5527 36.0125 38.5527 37.0143 39.1706 37.6321C39.7883 38.2499 40.7901 38.2499 41.4079 37.6321L47.3179 31.7221C48.2012 30.8388 48.6877 29.6644 48.6877 28.4152C48.6877 27.2425 48.2589 26.1356 47.4755 25.2737L47.4754 16.0606C47.4754 15.5758 47.676 15.1327 48.0402 14.8129C48.4045 14.493 48.8697 14.3518 49.3506 14.4141C50.1729 14.5214 50.7943 15.2276 50.7963 16.0568L50.836 33.4942C50.8382 34.4773 50.4408 35.44 49.7456 36.1351ZM4.25451 36.1351C3.55936 35.4398 3.16196 34.4772 3.16417 33.4942L3.20404 16.0567C3.20594 15.2274 3.82746 14.5211 4.6497 14.4139C5.13053 14.3515 5.59575 14.4928 5.96004 14.8127C6.32433 15.1325 6.52483 15.5755 6.52483 16.0604L6.52472 25.2735C5.7413 26.1354 5.31257 27.2423 5.31257 28.415C5.31257 29.6642 5.79899 30.8386 6.68229 31.7219L12.5923 37.6319C13.2101 38.2496 14.2118 38.2496 14.8297 37.6319C15.4475 37.0142 15.4475 36.0124 14.8297 35.3946L8.9195 29.4847C8.32982 28.8949 8.32982 27.9355 8.9195 27.3458C9.50928 26.7562 10.4686 26.7563 11.0584 27.3458L15.2059 31.4932C15.9211 32.2085 16.9032 32.5593 17.9079 32.4578L19.7709 32.3466C19.7998 32.3448 19.8287 32.3422 19.8575 32.339C20.453 32.2707 21.0385 32.4744 21.4627 32.8986L24.0279 35.4638C24.9244 36.3602 25.418 37.5521 25.418 38.8198V50.836H15.293V47.8288C15.293 47.4092 15.1262 47.0068 14.8295 46.7102L4.25451 36.1351Z" fill="#E95959"/>
</g>
<defs>
<clipPath id="clip0">
<rect width="54" height="54" fill="white"/>
</clipPath>
</defs>
</svg>
